<svg width="13" height="14" viewBox="0 0 13 14" fill="none" xmlns="http://www.w3.org/2000/svg">
    <path fill-rule="evenodd" clip-rule="evenodd"
          d="M10.9688 8.3125C11.1931 8.3125 11.375 8.50838 11.375 8.75V11.8125C11.375 12.0541 11.1931 12.25 10.9688 12.25H8.125C7.90063 12.25 7.71875 12.0541 7.71875 11.8125C7.71875 11.5709 7.90063 11.375 8.125 11.375H10.5625V8.75C10.5625 8.50838 10.7444 8.3125 10.9688 8.3125Z"
          fill="black"/>
    <path fill-rule="evenodd" clip-rule="evenodd"
          d="M7.43145 8.00318C7.59008 7.8323 7.8473 7.83227 8.00598 8.0031L10.997 11.2234C11.1557 11.3942 11.1557 11.6712 10.9971 11.8421C10.8384 12.013 10.5812 12.013 10.4225 11.8422L7.43152 8.6219C7.27285 8.45107 7.27282 8.17406 7.43145 8.00318Z"
          fill="black"/>
    <path fill-rule="evenodd" clip-rule="evenodd"
          d="M1.625 2.1875C1.625 1.94588 1.80688 1.75 2.03125 1.75H4.875C5.09937 1.75 5.28125 1.94588 5.28125 2.1875C5.28125 2.42912 5.09937 2.625 4.875 2.625H2.4375V5.25C2.4375 5.49162 2.25562 5.6875 2.03125 5.6875C1.80688 5.6875 1.625 5.49162 1.625 5.25V2.1875Z"
          fill="black"/>
    <path fill-rule="evenodd" clip-rule="evenodd"
          d="M2.00298 2.15766C2.16161 1.98678 2.41884 1.98675 2.57751 2.15758L5.56852 5.37785C5.7272 5.54869 5.72723 5.8257 5.5686 5.99657C5.40997 6.16745 5.15274 6.16748 4.99407 5.99665L2.00306 2.77638C1.84439 2.60555 1.84435 2.32854 2.00298 2.15766Z"
          fill="black"/>
    <path fill-rule="evenodd" clip-rule="evenodd"
          d="M7.71875 2.1875C7.71875 1.94588 7.90063 1.75 8.125 1.75H10.9688C11.1931 1.75 11.375 1.94588 11.375 2.1875V5.25C11.375 5.49162 11.1931 5.6875 10.9688 5.6875C10.7444 5.6875 10.5625 5.49162 10.5625 5.25V2.625H8.125C7.90063 2.625 7.71875 2.42912 7.71875 2.1875Z"
          fill="black"/>
    <path fill-rule="evenodd" clip-rule="evenodd"
          d="M10.9962 2.15691C11.1549 2.32774 11.1549 2.60475 10.9963 2.77563L8.00605 5.99672C7.84742 6.1676 7.5902 6.16763 7.43152 5.9968C7.27285 5.82597 7.27282 5.54896 7.43145 5.37808L10.4217 2.15699C10.5803 1.98611 10.8376 1.98608 10.9962 2.15691Z"
          fill="black"/>
    <path fill-rule="evenodd" clip-rule="evenodd"
          d="M2.03125 8.3125C2.25562 8.3125 2.4375 8.50838 2.4375 8.75V11.375H4.875C5.09937 11.375 5.28125 11.5709 5.28125 11.8125C5.28125 12.0541 5.09937 12.25 4.875 12.25H2.03125C1.80688 12.25 1.625 12.0541 1.625 11.8125V8.75C1.625 8.50838 1.80688 8.3125 2.03125 8.3125Z"
          fill="black"/>
    <path fill-rule="evenodd" clip-rule="evenodd"
          d="M5.56849 8.0031C5.72717 8.17393 5.7272 8.45094 5.56857 8.62182L2.57831 11.8429C2.41968 12.0138 2.16246 12.0138 2.00379 11.843C1.84512 11.6722 1.84509 11.3951 2.00372 11.2243L4.99397 8.00318C5.1526 7.8323 5.40982 7.83227 5.56849 8.0031Z"
          fill="black"/>
</svg>
