<svg width="44" height="44" viewBox="0 0 44 44" fill="none" xmlns="http://www.w3.org/2000/svg">
    <g filter="url(#filter0_d_795_34)">
        <line x1="6" y1="6.5" x2="38" y2="6.5" stroke="#54FF65"/>
        <line x1="6" y1="11.8333" x2="38" y2="11.8333" stroke="#54FF65"/>
        <line x1="6" y1="16.1667" x2="15" y2="16.1667" stroke="#54FF65"/>
        <line x1="6" y1="21.5" x2="15" y2="21.5" stroke="#54FF65"/>
        <line x1="6" y1="26.8333" x2="15" y2="26.8333" stroke="#54FF65"/>
        <line x1="6" y1="32.1667" x2="15" y2="32.1667" stroke="#54FF65"/>
        <line x1="6" y1="37.5" x2="15" y2="37.5" stroke="#54FF65"/>
        <path d="M22.2714 33H21.2714V34H22.2714V33ZM22.5274 27.704L23.3877 28.2138L23.3917 28.207L23.3956 28.2001L22.5274 27.704ZM23.2154 27L22.7192 26.1318L22.7124 26.1357L22.7056 26.1397L23.2154 27ZM32.3994 26.568L33.1065 27.2751L33.1065 27.2751L32.3994 26.568ZM32.3994 22.984L31.6622 23.6597L31.6916 23.6918L31.7236 23.7212L32.3994 22.984ZM23.7594 22.984L23.0523 22.2769L23.0523 22.2769L23.7594 22.984ZM23.5834 23.864V24.864H24.5834V23.864H23.5834ZM22.2714 23.864H21.2714V24.864H22.2714V23.864ZM22.5274 22.44L23.3877 22.9498L23.3917 22.943L23.3956 22.9361L22.5274 22.44ZM23.2154 21.736L23.7252 22.5963L23.7344 22.5908L23.2154 21.736ZM32.9274 21.736L32.3946 22.5822L32.4127 22.5936L32.4312 22.6042L32.9274 21.736ZM33.6314 22.44L32.7631 22.9361L32.7737 22.9547L32.7851 22.9728L33.6314 22.44ZM33.6314 27.096L32.7765 26.577L32.7711 26.5862L33.6314 27.096ZM32.9274 27.8L33.4372 28.6603L33.4464 28.6548L32.9274 27.8ZM23.7594 28.248L23.0523 27.5409L23.0523 27.5409L23.7594 28.248ZM23.7594 31.512L23.0222 32.1877L23.0516 32.2198L23.0837 32.2492L23.7594 31.512ZM33.9034 31.688H34.9034V30.688H33.9034V31.688ZM33.9034 33V34H34.9034V33H33.9034ZM23.2714 33V28.68H21.2714V33H23.2714ZM23.2714 28.68C23.2714 28.4813 23.316 28.3347 23.3877 28.2138L21.6671 27.1942C21.3974 27.6493 21.2714 28.1534 21.2714 28.68H23.2714ZM23.3956 28.2001C23.4828 28.0475 23.5904 27.9402 23.7252 27.8603L22.7056 26.1397C22.2643 26.4012 21.9133 26.7631 21.6591 27.2079L23.3956 28.2001ZM23.7115 27.8682C23.8508 27.7887 24.0089 27.744 24.2074 27.744V25.744C23.6805 25.744 23.1773 25.87 22.7192 26.1318L23.7115 27.8682ZM24.2074 27.744H31.9674V25.744H24.2074V27.744ZM31.9674 27.744C32.3948 27.744 32.7957 27.5859 33.1065 27.2751L31.6923 25.8609C31.7214 25.8317 31.7665 25.7982 31.8261 25.7739C31.8851 25.7499 31.936 25.744 31.9674 25.744V27.744ZM33.1065 27.2751C33.4094 26.9722 33.5914 26.5732 33.5914 26.12H31.5914C31.5914 26.0769 31.6002 26.0221 31.6242 25.9661C31.6478 25.9112 31.6766 25.8766 31.6923 25.8609L33.1065 27.2751ZM33.5914 26.12V23.416H31.5914V26.12H33.5914ZM33.5914 23.416C33.5914 22.9595 33.4056 22.5498 33.0751 22.2468L31.7236 23.7212C31.6968 23.6965 31.6588 23.6519 31.6296 23.5861C31.6001 23.52 31.5914 23.4588 31.5914 23.416H33.5914ZM33.1365 22.3083C32.8335 21.9777 32.4239 21.792 31.9674 21.792V23.792C31.9246 23.792 31.8634 23.7832 31.7972 23.7538C31.7315 23.7246 31.6869 23.6866 31.6622 23.6597L33.1365 22.3083ZM31.9674 21.792H24.2074V23.792H31.9674V21.792ZM24.2074 21.792C23.7542 21.792 23.3552 21.974 23.0523 22.2769L24.4665 23.6911C24.4508 23.7068 24.4162 23.7356 24.3613 23.7591C24.3052 23.7832 24.2505 23.792 24.2074 23.792V21.792ZM23.0523 22.2769C22.7415 22.5877 22.5834 22.9886 22.5834 23.416H24.5834C24.5834 23.4474 24.5775 23.4983 24.5535 23.5573C24.5292 23.6169 24.4956 23.6619 24.4665 23.6911L23.0523 22.2769ZM22.5834 23.416V23.864H24.5834V23.416H22.5834ZM23.5834 22.864H22.2714V24.864H23.5834V22.864ZM23.2714 23.864V23.416H21.2714V23.864H23.2714ZM23.2714 23.416C23.2714 23.2173 23.316 23.0707 23.3877 22.9498L21.6671 21.9302C21.3974 22.3853 21.2714 22.8894 21.2714 23.416H23.2714ZM23.3956 22.9361C23.4828 22.7835 23.5904 22.6762 23.7252 22.5963L22.7056 20.8757C22.2643 21.1372 21.9133 21.4991 21.6591 21.9439L23.3956 22.9361ZM23.7344 22.5908C23.8705 22.5081 24.0204 22.464 24.2074 22.464V20.464C23.669 20.464 23.1576 20.6012 22.6964 20.8812L23.7344 22.5908ZM24.2074 22.464H31.9674V20.464H24.2074V22.464ZM31.9674 22.464C32.1376 22.464 32.2718 22.5049 32.3946 22.5822L33.4602 20.8898C33.007 20.6044 32.5011 20.464 31.9674 20.464V22.464ZM32.4312 22.6042C32.5749 22.6863 32.6811 22.7925 32.7631 22.9361L34.4996 21.9439C34.2404 21.4902 33.8772 21.127 33.4235 20.8678L32.4312 22.6042ZM32.7851 22.9728C32.8593 23.0907 32.9034 23.229 32.9034 23.416H34.9034C34.9034 22.8777 34.7661 22.3653 34.4776 21.9072L32.7851 22.9728ZM32.9034 23.416V26.12H34.9034V23.416H32.9034ZM32.9034 26.12C32.9034 26.2904 32.8622 26.436 32.7766 26.577L34.4862 27.615C34.7632 27.1586 34.9034 26.6536 34.9034 26.12H32.9034ZM32.7711 26.5862C32.6878 26.7267 32.573 26.8452 32.4084 26.9452L33.4464 28.6548C33.879 28.3921 34.2336 28.0413 34.4917 27.6058L32.7711 26.5862ZM32.4176 26.9397C32.292 27.0141 32.1496 27.056 31.9674 27.056V29.056C32.4891 29.056 32.9868 28.9272 33.4372 28.6603L32.4176 26.9397ZM31.9674 27.056H24.2074V29.056H31.9674V27.056ZM24.2074 27.056C23.7542 27.056 23.3552 27.238 23.0523 27.5409L24.4665 28.9551C24.4508 28.9708 24.4162 28.9996 24.3613 29.0231C24.3052 29.0472 24.2505 29.056 24.2074 29.056V27.056ZM23.0523 27.5409C22.7415 27.8517 22.5834 28.2526 22.5834 28.68H24.5834C24.5834 28.7114 24.5775 28.7623 24.5535 28.8213C24.5292 28.8809 24.4956 28.9259 24.4665 28.9551L23.0523 27.5409ZM22.5834 28.68V31.064H24.5834V28.68H22.5834ZM22.5834 31.064C22.5834 31.4896 22.7391 31.8789 23.0222 32.1877L24.4965 30.8363C24.514 30.8554 24.539 30.8896 24.5581 30.9383C24.5774 30.9874 24.5834 31.0322 24.5834 31.064H22.5834ZM23.0837 32.2492C23.3925 32.5323 23.7817 32.688 24.2074 32.688V30.688C24.2391 30.688 24.2839 30.694 24.333 30.7132C24.3818 30.7324 24.416 30.7573 24.4351 30.7748L23.0837 32.2492ZM24.2074 32.688H33.9034V30.688H24.2074V32.688ZM32.9034 31.688V33H34.9034V31.688H32.9034ZM33.9034 32H22.2714V34H33.9034V32Z"
              fill="#54FF65"/>
    </g>
    <defs>
        <filter id="filter0_d_795_34" x="0" y="0" width="44" height="44" filterUnits="userSpaceOnUse"
                color-interpolation-filters="sRGB">
            <feFlood flood-opacity="0" result="BackgroundImageFix"/>
            <feColorMatrix in="SourceAlpha" type="matrix" values="0 0 0 0 0 0 0 0 0 0 0 0 0 0 0 0 0 0 127 0"
                           result="hardAlpha"/>
            <feOffset/>
            <feGaussianBlur stdDeviation="3"/>
            <feComposite in2="hardAlpha" operator="out"/>
            <feColorMatrix type="matrix" values="0 0 0 0 0.329167 0 0 0 0 1 0 0 0 0 0.39625 0 0 0 1 0"/>
            <feBlend mode="normal" in2="BackgroundImageFix" result="effect1_dropShadow_795_34"/>
            <feBlend mode="normal" in="SourceGraphic" in2="effect1_dropShadow_795_34" result="shape"/>
        </filter>
    </defs>
</svg>
