<svg width="44" height="46" viewBox="0 0 44 46" fill="none" xmlns="http://www.w3.org/2000/svg">
<g filter="url(#filter0_d_424_16)">
<g filter="url(#filter1_di_424_16)">
<line x1="6" y1="6.5" x2="38" y2="6.5" stroke="#54FF65"/>
</g>
<g filter="url(#filter2_di_424_16)">
<line x1="6" y1="11.8333" x2="38" y2="11.8333" stroke="#54FF65"/>
</g>
<g filter="url(#filter3_di_424_16)">
<line x1="6" y1="16.1667" x2="15" y2="16.1667" stroke="#54FF65"/>
</g>
<g filter="url(#filter4_di_424_16)">
<line x1="6" y1="21.5" x2="15" y2="21.5" stroke="#54FF65"/>
</g>
<g filter="url(#filter5_di_424_16)">
<line x1="6" y1="26.8333" x2="15" y2="26.8333" stroke="#54FF65"/>
</g>
<g filter="url(#filter6_di_424_16)">
<line x1="6" y1="32.1667" x2="15" y2="32.1667" stroke="#54FF65"/>
</g>
<g filter="url(#filter7_di_424_16)">
<line x1="6" y1="37.5" x2="15" y2="37.5" stroke="#54FF65"/>
</g>
<g filter="url(#filter8_di_424_16)">
<path d="M21.504 33H20.504V34H21.504V33ZM21.504 22.952H22.504V20.1931L20.7363 22.3112L21.504 22.952ZM19.728 25.08V26.08H20.1959L20.4957 25.7208L19.728 25.08ZM18.016 25.08L17.2503 24.4368L15.87 26.08H18.016V25.08ZM21.04 21.48V20.48H20.574L20.2743 20.8368L21.04 21.48ZM22.832 21.48H23.832V20.48H22.832V21.48ZM22.832 33V34H23.832V33H22.832ZM22.504 33V22.952H20.504V33H22.504ZM20.7363 22.3112L18.9603 24.4392L20.4957 25.7208L22.2717 23.5928L20.7363 22.3112ZM19.728 24.08H18.016V26.08H19.728V24.08ZM18.7817 25.7232L21.8057 22.1232L20.2743 20.8368L17.2503 24.4368L18.7817 25.7232ZM21.04 22.48H22.832V20.48H21.04V22.48ZM21.832 21.48V33H23.832V21.48H21.832ZM22.832 32H21.504V34H22.832V32ZM26.106 32.744L25.5732 33.5902L25.5913 33.6016L25.6099 33.6122L26.106 32.744ZM25.418 32.04L24.5498 32.5361L24.5537 32.543L24.5577 32.5498L25.418 32.04ZM25.418 22.456L26.2783 22.9658L26.2823 22.959L26.2862 22.9521L25.418 22.456ZM26.106 21.752L26.6158 22.6123L26.625 22.6068L26.106 21.752ZM35.818 21.752L35.2852 22.5982L35.3033 22.6096L35.3219 22.6202L35.818 21.752ZM36.522 22.456L35.6538 22.9521L35.6644 22.9707L35.6758 22.9888L36.522 22.456ZM36.522 32.04L35.6672 31.521L35.6617 31.5302L36.522 32.04ZM35.818 32.744L36.3278 33.6043L36.337 33.5988L35.818 32.744ZM26.634 31.688L25.9978 30.9165L23.8494 32.688H26.634V31.688ZM35.29 31.512L35.9971 32.2191L35.9971 32.2191L35.29 31.512ZM35.482 24.392H36.482V22.2713L34.8458 23.6205L35.482 24.392ZM26.474 30.104H25.474V32.2272L27.1109 30.875L26.474 30.104ZM35.306 22.808L35.9429 23.579L38.0867 21.808H35.306V22.808ZM26.65 23L27.3571 23.7071L27.3571 23.7071L26.65 23ZM27.098 32C26.8995 32 26.7414 31.9553 26.6021 31.8758L25.6099 33.6122C26.0679 33.874 26.5711 34 27.098 34V32ZM26.6388 31.8978C26.4828 31.7995 26.3667 31.6793 26.2783 31.5302L24.5577 32.5498C24.8107 32.9767 25.1532 33.3258 25.5732 33.5902L26.6388 31.8978ZM26.2862 31.5439C26.204 31.3999 26.162 31.2462 26.162 31.064H24.162C24.162 31.5858 24.2907 32.0827 24.5498 32.5361L26.2862 31.5439ZM26.162 31.064V23.432H24.162V31.064H26.162ZM26.162 23.432C26.162 23.2333 26.2066 23.0867 26.2783 22.9658L24.5577 21.9462C24.288 22.4013 24.162 22.9054 24.162 23.432H26.162ZM26.2862 22.9521C26.3735 22.7995 26.481 22.6922 26.6158 22.6123L25.5962 20.8917C25.155 21.1532 24.8039 21.5151 24.5498 21.9599L26.2862 22.9521ZM26.625 22.6068C26.7611 22.5241 26.9111 22.48 27.098 22.48V20.48C26.5596 20.48 26.0482 20.6172 25.587 20.8972L26.625 22.6068ZM27.098 22.48H34.858V20.48H27.098V22.48ZM34.858 22.48C35.0283 22.48 35.1624 22.5209 35.2852 22.5982L36.3508 20.9058C35.8976 20.6204 35.3917 20.48 34.858 20.48V22.48ZM35.3219 22.6202C35.4655 22.7023 35.5717 22.8085 35.6538 22.9521L37.3902 21.9599C37.131 21.5062 36.7678 21.143 36.3141 20.8838L35.3219 22.6202ZM35.6758 22.9888C35.75 23.1067 35.794 23.245 35.794 23.432H37.794C37.794 22.8937 37.6567 22.3813 37.3682 21.9232L35.6758 22.9888ZM35.794 23.432V31.064H37.794V23.432H35.794ZM35.794 31.064C35.794 31.2344 35.7528 31.38 35.6672 31.521L37.3768 32.559C37.6538 32.1026 37.794 31.5976 37.794 31.064H35.794ZM35.6617 31.5302C35.5785 31.6707 35.4637 31.7892 35.299 31.8892L36.337 33.5988C36.7697 33.3361 37.1242 32.9853 37.3823 32.5498L35.6617 31.5302ZM35.3082 31.8837C35.1826 31.9581 35.0402 32 34.858 32V34C35.3798 34 35.8774 33.8712 36.3278 33.6043L35.3082 31.8837ZM34.858 32H27.098V34H34.858V32ZM26.634 32.688H34.858V30.688H26.634V32.688ZM34.858 32.688C35.2854 32.688 35.6863 32.5299 35.9971 32.2191L34.5829 30.8049C34.6121 30.7757 34.6571 30.7422 34.7167 30.7179C34.7757 30.6939 34.8266 30.688 34.858 30.688V32.688ZM35.9971 32.2191C36.3 31.9162 36.482 31.5172 36.482 31.064H34.482C34.482 31.0209 34.4908 30.9661 34.5149 30.9101C34.5384 30.8552 34.5672 30.8206 34.5829 30.8049L35.9971 32.2191ZM36.482 31.064V24.392H34.482V31.064H36.482ZM34.8458 23.6205L25.9978 30.9165L27.2702 32.4595L36.1182 25.1635L34.8458 23.6205ZM27.1109 30.875L35.9429 23.579L34.6691 22.037L25.8371 29.333L27.1109 30.875ZM35.306 21.808H27.098V23.808H35.306V21.808ZM27.098 21.808C26.6448 21.808 26.2458 21.99 25.9429 22.2929L27.3571 23.7071C27.3414 23.7228 27.3068 23.7516 27.2519 23.7751C27.1959 23.7992 27.1411 23.808 27.098 23.808V21.808ZM25.9429 22.2929C25.6321 22.6037 25.474 23.0046 25.474 23.432H27.474C27.474 23.4634 27.4681 23.5143 27.4441 23.5733C27.4198 23.6329 27.3863 23.6779 27.3571 23.7071L25.9429 22.2929ZM25.474 23.432V30.104H27.474V23.432H25.474Z" fill="#54FF65"/>
</g>
</g>
<defs>
<filter id="filter0_d_424_16" x="2" y="6" width="40" height="40" filterUnits="userSpaceOnUse" color-interpolation-filters="sRGB">
<feFlood flood-opacity="0" result="BackgroundImageFix"/>
<feColorMatrix in="SourceAlpha" type="matrix" values="0 0 0 0 0 0 0 0 0 0 0 0 0 0 0 0 0 0 127 0" result="hardAlpha"/>
<feOffset dy="4"/>
<feGaussianBlur stdDeviation="2"/>
<feComposite in2="hardAlpha" operator="out"/>
<feColorMatrix type="matrix" values="0 0 0 0 0 0 0 0 0 0 0 0 0 0 0 0 0 0 0.25 0"/>
<feBlend mode="normal" in2="BackgroundImageFix" result="effect1_dropShadow_424_16"/>
<feBlend mode="normal" in="SourceGraphic" in2="effect1_dropShadow_424_16" result="shape"/>
</filter>
<filter id="filter1_di_424_16" x="0" y="0" width="44" height="13" filterUnits="userSpaceOnUse" color-interpolation-filters="sRGB">
<feFlood flood-opacity="0" result="BackgroundImageFix"/>
<feColorMatrix in="SourceAlpha" type="matrix" values="0 0 0 0 0 0 0 0 0 0 0 0 0 0 0 0 0 0 127 0" result="hardAlpha"/>
<feOffset/>
<feGaussianBlur stdDeviation="3"/>
<feComposite in2="hardAlpha" operator="out"/>
<feColorMatrix type="matrix" values="0 0 0 0 0.329167 0 0 0 0 1 0 0 0 0 0.39625 0 0 0 1 0"/>
<feBlend mode="normal" in2="BackgroundImageFix" result="effect1_dropShadow_424_16"/>
<feBlend mode="normal" in="SourceGraphic" in2="effect1_dropShadow_424_16" result="shape"/>
<feColorMatrix in="SourceAlpha" type="matrix" values="0 0 0 0 0 0 0 0 0 0 0 0 0 0 0 0 0 0 127 0" result="hardAlpha"/>
<feOffset/>
<feGaussianBlur stdDeviation="2"/>
<feComposite in2="hardAlpha" operator="arithmetic" k2="-1" k3="1"/>
<feColorMatrix type="matrix" values="0 0 0 0 0.329167 0 0 0 0 1 0 0 0 0 0.39625 0 0 0 1 0"/>
<feBlend mode="normal" in2="shape" result="effect2_innerShadow_424_16"/>
</filter>
<filter id="filter2_di_424_16" x="0" y="5.33331" width="44" height="13" filterUnits="userSpaceOnUse" color-interpolation-filters="sRGB">
<feFlood flood-opacity="0" result="BackgroundImageFix"/>
<feColorMatrix in="SourceAlpha" type="matrix" values="0 0 0 0 0 0 0 0 0 0 0 0 0 0 0 0 0 0 127 0" result="hardAlpha"/>
<feOffset/>
<feGaussianBlur stdDeviation="3"/>
<feComposite in2="hardAlpha" operator="out"/>
<feColorMatrix type="matrix" values="0 0 0 0 0.329167 0 0 0 0 1 0 0 0 0 0.39625 0 0 0 1 0"/>
<feBlend mode="normal" in2="BackgroundImageFix" result="effect1_dropShadow_424_16"/>
<feBlend mode="normal" in="SourceGraphic" in2="effect1_dropShadow_424_16" result="shape"/>
<feColorMatrix in="SourceAlpha" type="matrix" values="0 0 0 0 0 0 0 0 0 0 0 0 0 0 0 0 0 0 127 0" result="hardAlpha"/>
<feOffset/>
<feGaussianBlur stdDeviation="2"/>
<feComposite in2="hardAlpha" operator="arithmetic" k2="-1" k3="1"/>
<feColorMatrix type="matrix" values="0 0 0 0 0.329167 0 0 0 0 1 0 0 0 0 0.39625 0 0 0 1 0"/>
<feBlend mode="normal" in2="shape" result="effect2_innerShadow_424_16"/>
</filter>
<filter id="filter3_di_424_16" x="0" y="9.66669" width="21" height="13" filterUnits="userSpaceOnUse" color-interpolation-filters="sRGB">
<feFlood flood-opacity="0" result="BackgroundImageFix"/>
<feColorMatrix in="SourceAlpha" type="matrix" values="0 0 0 0 0 0 0 0 0 0 0 0 0 0 0 0 0 0 127 0" result="hardAlpha"/>
<feOffset/>
<feGaussianBlur stdDeviation="3"/>
<feComposite in2="hardAlpha" operator="out"/>
<feColorMatrix type="matrix" values="0 0 0 0 0.329167 0 0 0 0 1 0 0 0 0 0.39625 0 0 0 1 0"/>
<feBlend mode="normal" in2="BackgroundImageFix" result="effect1_dropShadow_424_16"/>
<feBlend mode="normal" in="SourceGraphic" in2="effect1_dropShadow_424_16" result="shape"/>
<feColorMatrix in="SourceAlpha" type="matrix" values="0 0 0 0 0 0 0 0 0 0 0 0 0 0 0 0 0 0 127 0" result="hardAlpha"/>
<feOffset/>
<feGaussianBlur stdDeviation="2"/>
<feComposite in2="hardAlpha" operator="arithmetic" k2="-1" k3="1"/>
<feColorMatrix type="matrix" values="0 0 0 0 0.329167 0 0 0 0 1 0 0 0 0 0.39625 0 0 0 1 0"/>
<feBlend mode="normal" in2="shape" result="effect2_innerShadow_424_16"/>
</filter>
<filter id="filter4_di_424_16" x="0" y="15" width="21" height="13" filterUnits="userSpaceOnUse" color-interpolation-filters="sRGB">
<feFlood flood-opacity="0" result="BackgroundImageFix"/>
<feColorMatrix in="SourceAlpha" type="matrix" values="0 0 0 0 0 0 0 0 0 0 0 0 0 0 0 0 0 0 127 0" result="hardAlpha"/>
<feOffset/>
<feGaussianBlur stdDeviation="3"/>
<feComposite in2="hardAlpha" operator="out"/>
<feColorMatrix type="matrix" values="0 0 0 0 0.329167 0 0 0 0 1 0 0 0 0 0.39625 0 0 0 1 0"/>
<feBlend mode="normal" in2="BackgroundImageFix" result="effect1_dropShadow_424_16"/>
<feBlend mode="normal" in="SourceGraphic" in2="effect1_dropShadow_424_16" result="shape"/>
<feColorMatrix in="SourceAlpha" type="matrix" values="0 0 0 0 0 0 0 0 0 0 0 0 0 0 0 0 0 0 127 0" result="hardAlpha"/>
<feOffset/>
<feGaussianBlur stdDeviation="2"/>
<feComposite in2="hardAlpha" operator="arithmetic" k2="-1" k3="1"/>
<feColorMatrix type="matrix" values="0 0 0 0 0.329167 0 0 0 0 1 0 0 0 0 0.39625 0 0 0 1 0"/>
<feBlend mode="normal" in2="shape" result="effect2_innerShadow_424_16"/>
</filter>
<filter id="filter5_di_424_16" x="0" y="20.3333" width="21" height="13" filterUnits="userSpaceOnUse" color-interpolation-filters="sRGB">
<feFlood flood-opacity="0" result="BackgroundImageFix"/>
<feColorMatrix in="SourceAlpha" type="matrix" values="0 0 0 0 0 0 0 0 0 0 0 0 0 0 0 0 0 0 127 0" result="hardAlpha"/>
<feOffset/>
<feGaussianBlur stdDeviation="3"/>
<feComposite in2="hardAlpha" operator="out"/>
<feColorMatrix type="matrix" values="0 0 0 0 0.329167 0 0 0 0 1 0 0 0 0 0.39625 0 0 0 1 0"/>
<feBlend mode="normal" in2="BackgroundImageFix" result="effect1_dropShadow_424_16"/>
<feBlend mode="normal" in="SourceGraphic" in2="effect1_dropShadow_424_16" result="shape"/>
<feColorMatrix in="SourceAlpha" type="matrix" values="0 0 0 0 0 0 0 0 0 0 0 0 0 0 0 0 0 0 127 0" result="hardAlpha"/>
<feOffset/>
<feGaussianBlur stdDeviation="2"/>
<feComposite in2="hardAlpha" operator="arithmetic" k2="-1" k3="1"/>
<feColorMatrix type="matrix" values="0 0 0 0 0.329167 0 0 0 0 1 0 0 0 0 0.39625 0 0 0 1 0"/>
<feBlend mode="normal" in2="shape" result="effect2_innerShadow_424_16"/>
</filter>
<filter id="filter6_di_424_16" x="0" y="25.6667" width="21" height="13" filterUnits="userSpaceOnUse" color-interpolation-filters="sRGB">
<feFlood flood-opacity="0" result="BackgroundImageFix"/>
<feColorMatrix in="SourceAlpha" type="matrix" values="0 0 0 0 0 0 0 0 0 0 0 0 0 0 0 0 0 0 127 0" result="hardAlpha"/>
<feOffset/>
<feGaussianBlur stdDeviation="3"/>
<feComposite in2="hardAlpha" operator="out"/>
<feColorMatrix type="matrix" values="0 0 0 0 0.329167 0 0 0 0 1 0 0 0 0 0.39625 0 0 0 1 0"/>
<feBlend mode="normal" in2="BackgroundImageFix" result="effect1_dropShadow_424_16"/>
<feBlend mode="normal" in="SourceGraphic" in2="effect1_dropShadow_424_16" result="shape"/>
<feColorMatrix in="SourceAlpha" type="matrix" values="0 0 0 0 0 0 0 0 0 0 0 0 0 0 0 0 0 0 127 0" result="hardAlpha"/>
<feOffset/>
<feGaussianBlur stdDeviation="2"/>
<feComposite in2="hardAlpha" operator="arithmetic" k2="-1" k3="1"/>
<feColorMatrix type="matrix" values="0 0 0 0 0.329167 0 0 0 0 1 0 0 0 0 0.39625 0 0 0 1 0"/>
<feBlend mode="normal" in2="shape" result="effect2_innerShadow_424_16"/>
</filter>
<filter id="filter7_di_424_16" x="0" y="31" width="21" height="13" filterUnits="userSpaceOnUse" color-interpolation-filters="sRGB">
<feFlood flood-opacity="0" result="BackgroundImageFix"/>
<feColorMatrix in="SourceAlpha" type="matrix" values="0 0 0 0 0 0 0 0 0 0 0 0 0 0 0 0 0 0 127 0" result="hardAlpha"/>
<feOffset/>
<feGaussianBlur stdDeviation="3"/>
<feComposite in2="hardAlpha" operator="out"/>
<feColorMatrix type="matrix" values="0 0 0 0 0.329167 0 0 0 0 1 0 0 0 0 0.39625 0 0 0 1 0"/>
<feBlend mode="normal" in2="BackgroundImageFix" result="effect1_dropShadow_424_16"/>
<feBlend mode="normal" in="SourceGraphic" in2="effect1_dropShadow_424_16" result="shape"/>
<feColorMatrix in="SourceAlpha" type="matrix" values="0 0 0 0 0 0 0 0 0 0 0 0 0 0 0 0 0 0 127 0" result="hardAlpha"/>
<feOffset/>
<feGaussianBlur stdDeviation="2"/>
<feComposite in2="hardAlpha" operator="arithmetic" k2="-1" k3="1"/>
<feColorMatrix type="matrix" values="0 0 0 0 0.329167 0 0 0 0 1 0 0 0 0 0.39625 0 0 0 1 0"/>
<feBlend mode="normal" in2="shape" result="effect2_innerShadow_424_16"/>
</filter>
<filter id="filter8_di_424_16" x="12.016" y="15.48" width="30.778" height="23.52" filterUnits="userSpaceOnUse" color-interpolation-filters="sRGB">
<feFlood flood-opacity="0" result="BackgroundImageFix"/>
<feColorMatrix in="SourceAlpha" type="matrix" values="0 0 0 0 0 0 0 0 0 0 0 0 0 0 0 0 0 0 127 0" result="hardAlpha"/>
<feOffset/>
<feGaussianBlur stdDeviation="3"/>
<feComposite in2="hardAlpha" operator="out"/>
<feColorMatrix type="matrix" values="0 0 0 0 0.329167 0 0 0 0 1 0 0 0 0 0.39625 0 0 0 1 0"/>
<feBlend mode="normal" in2="BackgroundImageFix" result="effect1_dropShadow_424_16"/>
<feBlend mode="normal" in="SourceGraphic" in2="effect1_dropShadow_424_16" result="shape"/>
<feColorMatrix in="SourceAlpha" type="matrix" values="0 0 0 0 0 0 0 0 0 0 0 0 0 0 0 0 0 0 127 0" result="hardAlpha"/>
<feOffset/>
<feGaussianBlur stdDeviation="2"/>
<feComposite in2="hardAlpha" operator="arithmetic" k2="-1" k3="1"/>
<feColorMatrix type="matrix" values="0 0 0 0 0.329167 0 0 0 0 1 0 0 0 0 0.39625 0 0 0 1 0"/>
<feBlend mode="normal" in2="shape" result="effect2_innerShadow_424_16"/>
</filter>
</defs>
</svg>
