<svg width="24" height="24" viewBox="0 0 24 24" fill="none" xmlns="http://www.w3.org/2000/svg">
    <path d="M15 13.462V3.79728C15 2.15103 13.6927 0.777595 12.0469 0.752751C11.6491 0.74704 11.2542 0.820392 10.885 0.968551C10.5158 1.11671 10.1798 1.33672 9.89631 1.61582C9.61285 1.89492 9.38765 2.22754 9.23379 2.59437C9.07992 2.96121 9.00046 3.35495 9 3.75275V13.462C8.99989 13.5199 8.98638 13.577 8.96052 13.6288C8.93466 13.6806 8.89715 13.7257 8.85094 13.7606C8.19734 14.2572 7.66756 14.8985 7.30308 15.634C6.93859 16.3696 6.74929 17.1795 6.75 18.0004C6.75 19.3928 7.30313 20.7282 8.28769 21.7127C9.27226 22.6973 10.6076 23.2504 12 23.2504C13.3924 23.2504 14.7277 22.6973 15.7123 21.7127C16.6969 20.7282 17.25 19.3928 17.25 18.0004C17.2507 17.1795 17.0614 16.3696 16.6969 15.634C16.3324 14.8985 15.8027 14.2572 15.1491 13.7606C15.1029 13.7257 15.0653 13.6806 15.0395 13.6288C15.0136 13.577 15.0001 13.5199 15 13.462ZM11.9095 20.2504C11.4225 20.2303 10.9552 20.0526 10.5778 19.744C10.2005 19.4354 9.93363 19.0126 9.81733 18.5392C9.70102 18.0658 9.74158 17.5675 9.93292 17.1191C10.1243 16.6708 10.456 16.2967 10.8783 16.0532C10.9922 15.9875 11.0868 15.8929 11.1526 15.779C11.2184 15.6652 11.2531 15.536 11.2533 15.4045V5.2715C11.2533 4.86791 11.5636 4.5215 11.9672 4.50134C12.0683 4.49692 12.1693 4.51301 12.2641 4.54865C12.3588 4.5843 12.4454 4.63875 12.5185 4.70874C12.5917 4.77873 12.6499 4.86281 12.6897 4.9559C12.7294 5.04899 12.75 5.14917 12.75 5.25041V15.4026C12.7509 15.5354 12.7866 15.6657 12.8537 15.7804C12.9207 15.8951 13.0167 15.9901 13.132 16.056C13.5671 16.3084 13.9051 16.6992 14.092 17.1661C14.2789 17.633 14.304 18.1491 14.1633 18.632C14.0226 19.1148 13.7241 19.5366 13.3156 19.8299C12.9071 20.1233 12.412 20.2713 11.9095 20.2504Z"
          fill="black"/>
</svg>
