<svg width="13" height="14" viewBox="0 0 13 14" fill="none" xmlns="http://www.w3.org/2000/svg">
<path d="M11.9844 4.59375H1.01562C0.854009 4.59375 0.699012 4.52461 0.584732 4.40154C0.470452 4.27847 0.40625 4.11155 0.40625 3.9375C0.40625 3.76345 0.470452 3.59653 0.584732 3.47346C0.699012 3.35039 0.854009 3.28125 1.01562 3.28125H11.9844C12.146 3.28125 12.301 3.35039 12.4153 3.47346C12.5295 3.59653 12.5938 3.76345 12.5938 3.9375C12.5938 4.11155 12.5295 4.27847 12.4153 4.40154C12.301 4.52461 12.146 4.59375 11.9844 4.59375Z" fill="black"/>
<path d="M9.95312 7.65625H3.04688C2.88526 7.65625 2.73026 7.58711 2.61598 7.46404C2.5017 7.34097 2.4375 7.17405 2.4375 7C2.4375 6.82595 2.5017 6.65903 2.61598 6.53596C2.73026 6.41289 2.88526 6.34375 3.04688 6.34375H9.95312C10.1147 6.34375 10.2697 6.41289 10.384 6.53596C10.4983 6.65903 10.5625 6.82595 10.5625 7C10.5625 7.17405 10.4983 7.34097 10.384 7.46404C10.2697 7.58711 10.1147 7.65625 9.95312 7.65625Z" fill="black"/>
<path d="M7.51562 10.7188H5.48438C5.32276 10.7188 5.16776 10.6496 5.05348 10.5265C4.9392 10.4035 4.875 10.2365 4.875 10.0625C4.875 9.88845 4.9392 9.72153 5.05348 9.59846C5.16776 9.47539 5.32276 9.40625 5.48438 9.40625H7.51562C7.67724 9.40625 7.83224 9.47539 7.94652 9.59846C8.0608 9.72153 8.125 9.88845 8.125 10.0625C8.125 10.2365 8.0608 10.4035 7.94652 10.5265C7.83224 10.6496 7.67724 10.7188 7.51562 10.7188Z" fill="black"/>
</svg>
