<svg width="24" height="24" viewBox="0 0 24 24" fill="none" xmlns="http://www.w3.org/2000/svg">
<path fill-rule="evenodd" clip-rule="evenodd" d="M20.8125 15C21.382 15 21.8438 15.4617 21.8438 16.0312V18.1875C21.8438 19.1572 21.4585 20.0872 20.7729 20.7729C20.0872 21.4585 19.1572 21.8438 18.1875 21.8438H16.0312C15.4617 21.8438 15 21.382 15 20.8125C15 20.243 15.4617 19.7812 16.0312 19.7812H18.1875C18.6102 19.7812 19.0156 19.6133 19.3145 19.3145C19.6133 19.0156 19.7812 18.6102 19.7812 18.1875V16.0312C19.7812 15.4617 20.243 15 20.8125 15Z" fill="#242424"/>
<path fill-rule="evenodd" clip-rule="evenodd" d="M15 3.1875C15 2.61796 15.4617 2.15625 16.0312 2.15625H18.1875C19.1572 2.15625 20.0872 2.54146 20.7729 3.22714C21.4585 3.91282 21.8438 4.8428 21.8438 5.8125V7.96875C21.8438 8.53829 21.382 9 20.8125 9C20.243 9 19.7812 8.53829 19.7812 7.96875V5.8125C19.7812 5.38981 19.6133 4.98443 19.3145 4.68555C19.0156 4.38666 18.6102 4.21875 18.1875 4.21875H16.0312C15.4617 4.21875 15 3.75704 15 3.1875Z" fill="#242424"/>
<path fill-rule="evenodd" clip-rule="evenodd" d="M3.1875 15C3.75704 15 4.21875 15.4617 4.21875 16.0312V18.1875C4.21875 18.6102 4.38666 19.0156 4.68555 19.3145C4.98443 19.6133 5.38981 19.7812 5.8125 19.7812H7.96875C8.53829 19.7812 9 20.243 9 20.8125C9 21.382 8.53829 21.8438 7.96875 21.8438H5.8125C4.8428 21.8438 3.91282 21.4585 3.22714 20.7729C2.54146 20.0872 2.15625 19.1572 2.15625 18.1875V16.0312C2.15625 15.4617 2.61796 15 3.1875 15Z" fill="#242424"/>
<path fill-rule="evenodd" clip-rule="evenodd" d="M5.8125 4.21875C5.38981 4.21875 4.98444 4.38666 4.68555 4.68555C4.38666 4.98444 4.21875 5.38981 4.21875 5.8125V7.96875C4.21875 8.53829 3.75704 9 3.1875 9C2.61796 9 2.15625 8.53829 2.15625 7.96875V5.8125C2.15625 4.8428 2.54146 3.91282 3.22714 3.22714C3.91282 2.54146 4.8428 2.15625 5.8125 2.15625H7.96875C8.53829 2.15625 9 2.61796 9 3.1875C9 3.75704 8.53829 4.21875 7.96875 4.21875H5.8125Z" fill="#242424"/>
</svg>
