<svg width="24" height="24" viewBox="0 0 24 24" fill="none" xmlns="http://www.w3.org/2000/svg">
<path d="M12 5.53125C11.7265 5.53125 11.4642 5.4226 11.2708 5.2292C11.0774 5.03581 10.9688 4.7735 10.9688 4.5V2.25C10.9688 1.9765 11.0774 1.71419 11.2708 1.5208C11.4642 1.3274 11.7265 1.21875 12 1.21875C12.2735 1.21875 12.5358 1.3274 12.7292 1.5208C12.9226 1.71419 13.0312 1.9765 13.0312 2.25V4.5C13.0312 4.7735 12.9226 5.03581 12.7292 5.2292C12.5358 5.4226 12.2735 5.53125 12 5.53125Z" fill="black"/>
<path d="M12 22.7812C11.7265 22.7812 11.4642 22.6726 11.2708 22.4792C11.0774 22.2858 10.9688 22.0235 10.9688 21.75V19.5C10.9688 19.2265 11.0774 18.9642 11.2708 18.7708C11.4642 18.5774 11.7265 18.4688 12 18.4688C12.2735 18.4688 12.5358 18.5774 12.7292 18.7708C12.9226 18.9642 13.0312 19.2265 13.0312 19.5V21.75C13.0312 22.0235 12.9226 22.2858 12.7292 22.4792C12.5358 22.6726 12.2735 22.7812 12 22.7812Z" fill="black"/>
<path d="M17.3036 7.72875C17.0997 7.72873 16.9003 7.66825 16.7308 7.55496C16.5612 7.44167 16.4291 7.28066 16.351 7.09228C16.273 6.9039 16.2525 6.6966 16.2922 6.49659C16.3319 6.29658 16.4301 6.11284 16.5742 5.96859L18.1652 4.37765C18.3594 4.18846 18.6203 4.08338 18.8915 4.08517C19.1626 4.08695 19.4222 4.19546 19.6139 4.38719C19.8056 4.57892 19.9141 4.83846 19.9159 5.1096C19.9177 5.38075 19.8126 5.64169 19.6234 5.83593L18.0325 7.42688C17.9369 7.52271 17.8232 7.59872 17.6982 7.65052C17.5731 7.70233 17.439 7.72891 17.3036 7.72875Z" fill="black"/>
<path d="M5.10559 19.926C4.90162 19.926 4.70223 19.8655 4.53265 19.7521C4.36307 19.6388 4.23092 19.4777 4.15289 19.2893C4.07487 19.1008 4.05449 18.8934 4.09432 18.6934C4.13415 18.4933 4.23242 18.3096 4.37668 18.1654L5.96762 16.5745C6.06291 16.4766 6.17668 16.3987 6.30233 16.3452C6.42798 16.2917 6.56301 16.2637 6.69958 16.2628C6.83614 16.2619 6.97153 16.2881 7.09787 16.34C7.22422 16.3918 7.339 16.4682 7.43557 16.5648C7.53214 16.6614 7.60857 16.7762 7.66041 16.9025C7.71226 17.0288 7.7385 17.1642 7.7376 17.3008C7.7367 17.4374 7.70868 17.5724 7.65518 17.698C7.60167 17.8237 7.52374 17.9375 7.42591 18.0328L5.83497 19.6237C5.7393 19.7196 5.62562 19.7958 5.50045 19.8476C5.37528 19.8995 5.24109 19.9262 5.10559 19.926Z" fill="black"/>
<path d="M21.75 13.0312H19.5C19.2265 13.0312 18.9642 12.9226 18.7708 12.7292C18.5774 12.5358 18.4688 12.2735 18.4688 12C18.4688 11.7265 18.5774 11.4642 18.7708 11.2708C18.9642 11.0774 19.2265 10.9688 19.5 10.9688H21.75C22.0235 10.9688 22.2858 11.0774 22.4792 11.2708C22.6726 11.4642 22.7812 11.7265 22.7812 12C22.7812 12.2735 22.6726 12.5358 22.4792 12.7292C22.2858 12.9226 22.0235 13.0312 21.75 13.0312Z" fill="black"/>
<path d="M4.5 13.0312H2.25C1.9765 13.0312 1.71419 12.9226 1.5208 12.7292C1.3274 12.5358 1.21875 12.2735 1.21875 12C1.21875 11.7265 1.3274 11.4642 1.5208 11.2708C1.71419 11.0774 1.9765 10.9688 2.25 10.9688H4.5C4.7735 10.9688 5.03581 11.0774 5.2292 11.2708C5.4226 11.4642 5.53125 11.7265 5.53125 12C5.53125 12.2735 5.4226 12.5358 5.2292 12.7292C5.03581 12.9226 4.7735 13.0312 4.5 13.0312Z" fill="black"/>
<path d="M18.8944 19.9257C18.7589 19.9258 18.6247 19.8992 18.4996 19.8473C18.3744 19.7954 18.2607 19.7193 18.1651 19.6233L16.5741 18.0324C16.3849 17.8381 16.2799 17.5772 16.2816 17.306C16.2834 17.0349 16.3919 16.7754 16.5837 16.5836C16.7754 16.3919 17.0349 16.2834 17.3061 16.2816C17.5772 16.2798 17.8382 16.3849 18.0324 16.5741L19.6233 18.165C19.7676 18.3092 19.8659 18.493 19.9057 18.693C19.9455 18.8931 19.9252 19.1004 19.8471 19.2889C19.7691 19.4773 19.6369 19.6384 19.4674 19.7518C19.2978 19.8651 19.0984 19.9256 18.8944 19.9257Z" fill="black"/>
<path d="M6.69657 7.72875C6.56117 7.72902 6.42705 7.70248 6.30195 7.65067C6.17685 7.59886 6.06324 7.5228 5.96767 7.42688L4.37673 5.83593C4.18754 5.64169 4.08247 5.38075 4.08425 5.1096C4.08604 4.83846 4.19454 4.57892 4.38627 4.38719C4.57801 4.19546 4.83754 4.08695 5.10869 4.08517C5.37983 4.08338 5.64077 4.18846 5.83501 4.37765L7.42595 5.96859C7.57008 6.11284 7.66821 6.29658 7.70793 6.49659C7.74766 6.6966 7.7272 6.9039 7.64914 7.09228C7.57108 7.28066 7.43892 7.44167 7.26937 7.55496C7.09982 7.66825 6.90049 7.72873 6.69657 7.72875Z" fill="black"/>
<path d="M12 16.7812C11.0544 16.7812 10.13 16.5008 9.34368 15.9754C8.55741 15.45 7.94458 14.7033 7.5827 13.8297C7.22082 12.956 7.12614 11.9946 7.31062 11.0672C7.49511 10.1397 7.95048 9.28777 8.61915 8.6191C9.28781 7.95043 10.1398 7.49506 11.0672 7.31058C11.9947 7.12609 12.956 7.22078 13.8297 7.58266C14.7034 7.94454 15.4501 8.55736 15.9755 9.34363C16.5008 10.1299 16.7812 11.0543 16.7812 11.9999C16.7797 13.2676 16.2755 14.4828 15.3792 15.3792C14.4829 16.2755 13.2676 16.7797 12 16.7812Z" fill="black"/>
</svg>
